<svg xmlns="http://www.w3.org/2000/svg" xmlns:xlink="http://www.w3.org/1999/xlink" width="240" zoomAndPan="magnify" viewBox="0 0 180 30.000001" height="40" preserveAspectRatio="xMidYMid meet" version="1.0"><defs><filter x="0%" y="0%" width="100%" height="100%" id="f7a1465758"><feColorMatrix values="0 0 0 0 1 0 0 0 0 1 0 0 0 0 1 0 0 0 1 0" color-interpolation-filters="sRGB"/></filter><g/><mask id="809f8fbe68"><g filter="url(#f7a1465758)"><rect x="-18" width="216" fill="#000000" y="-3" height="36.000001" fill-opacity="0.9"/></g></mask><clipPath id="6e5335723f"><path d="M 0.292969 0.691406 L 33.679688 0.691406 L 33.679688 17.296875 L 0.292969 17.296875 Z M 0.292969 0.691406 " clip-rule="nonzero"/></clipPath><clipPath id="e8738feaba"><rect x="0" width="36" y="0" height="18"/></clipPath></defs><g fill="#000000" fill-opacity="1"><g transform="translate(4.768123, 21.411292)"><g><path d="M 7.84375 -17.515625 L 15.359375 0 L 13.296875 0 L 11.328125 -4.75 L 4.1875 -4.75 L 2.171875 0 L 0.140625 0 Z M 4.9375 -6.46875 L 10.59375 -6.46875 L 7.796875 -13.171875 Z M 3.015625 -16.71875 Z M 3.015625 -16.71875 "/></g></g></g><g fill="#000000" fill-opacity="1"><g transform="translate(20.820134, 21.411292)"><g><path d="M 9.265625 -13.453125 C 8.898438 -14.109375 8.488281 -14.578125 8.03125 -14.859375 C 7.582031 -15.140625 7.039062 -15.28125 6.40625 -15.28125 C 5.59375 -15.28125 4.921875 -15.023438 4.390625 -14.515625 C 3.867188 -14.015625 3.609375 -13.40625 3.609375 -12.6875 C 3.609375 -12.125 3.828125 -11.640625 4.265625 -11.234375 C 4.703125 -10.835938 5.226562 -10.5 5.84375 -10.21875 C 6.46875 -9.9375 7.03125 -9.691406 7.53125 -9.484375 C 8.039062 -9.273438 8.625 -8.960938 9.28125 -8.546875 C 9.945312 -8.140625 10.457031 -7.625 10.8125 -7 C 11.175781 -6.382812 11.359375 -5.675781 11.359375 -4.875 C 11.359375 -3.957031 11.128906 -3.097656 10.671875 -2.296875 C 10.210938 -1.503906 9.570312 -0.875 8.75 -0.40625 C 7.9375 0.0507812 7.050781 0.28125 6.09375 0.28125 C 4.78125 0.28125 3.65625 -0.101562 2.71875 -0.875 C 1.78125 -1.65625 1.171875 -2.707031 0.890625 -4.03125 L 2.703125 -4.546875 C 2.847656 -3.628906 3.226562 -2.878906 3.84375 -2.296875 C 4.457031 -1.722656 5.191406 -1.4375 6.046875 -1.4375 C 6.984375 -1.4375 7.789062 -1.753906 8.46875 -2.390625 C 9.144531 -3.023438 9.484375 -3.796875 9.484375 -4.703125 C 9.484375 -5.492188 9.222656 -6.144531 8.703125 -6.65625 C 8.191406 -7.164062 7.25 -7.691406 5.875 -8.234375 C 4.5 -8.785156 3.46875 -9.398438 2.78125 -10.078125 C 2.09375 -10.765625 1.75 -11.65625 1.75 -12.75 C 1.75 -13.988281 2.207031 -15.003906 3.125 -15.796875 C 4.039062 -16.597656 5.144531 -17 6.4375 -17 C 7.375 -17 8.207031 -16.773438 8.9375 -16.328125 C 9.675781 -15.890625 10.28125 -15.25 10.75 -14.40625 Z M 9.265625 -13.453125 "/></g></g></g><g fill="#000000" fill-opacity="1"><g transform="translate(33.768186, 21.411292)"><g><path d="M 7.84375 -17.515625 L 15.359375 0 L 13.296875 0 L 11.328125 -4.75 L 4.1875 -4.75 L 2.171875 0 L 0.140625 0 Z M 4.9375 -6.46875 L 10.59375 -6.46875 L 7.796875 -13.171875 Z M 3.015625 -16.71875 Z M 3.015625 -16.71875 "/></g></g></g><g fill="#000000" fill-opacity="1"><g transform="translate(49.820197, 21.411292)"><g><path d="M 5.203125 -16.71875 C 6.742188 -16.71875 8.066406 -16.484375 9.171875 -16.015625 C 10.285156 -15.554688 11.210938 -14.929688 11.953125 -14.140625 C 12.691406 -13.347656 13.238281 -12.457031 13.59375 -11.46875 C 13.945312 -10.476562 14.125 -9.421875 14.125 -8.296875 C 14.125 -6.859375 13.796875 -5.519531 13.140625 -4.28125 C 12.484375 -3.050781 11.507812 -2.03125 10.21875 -1.21875 C 8.9375 -0.40625 7.257812 0 5.1875 0 L 1.6875 0 L 1.6875 -16.71875 Z M 5.328125 -1.734375 C 6.335938 -1.734375 7.253906 -1.882812 8.078125 -2.1875 C 8.910156 -2.488281 9.644531 -2.941406 10.28125 -3.546875 C 10.914062 -4.148438 11.40625 -4.875 11.75 -5.71875 C 12.09375 -6.5625 12.265625 -7.441406 12.265625 -8.359375 C 12.265625 -9.566406 11.992188 -10.660156 11.453125 -11.640625 C 10.910156 -12.628906 10.140625 -13.429688 9.140625 -14.046875 C 8.148438 -14.671875 6.8125 -14.984375 5.125 -14.984375 L 3.546875 -14.984375 L 3.546875 -1.734375 Z M 5.328125 -1.734375 "/></g></g></g><g fill="#000000" fill-opacity="1"><g transform="translate(65.406618, 21.411292)"><g/></g></g><g fill="#000000" fill-opacity="1"><g transform="translate(72.789718, 21.411292)"><g><path d="M 10.203125 -16.71875 L 10.203125 -14.984375 L 6.125 -14.984375 L 6.125 0 L 4.25 0 L 4.25 -14.984375 L 0.21875 -14.984375 L 0.21875 -16.71875 Z M 10.203125 -16.71875 "/></g></g></g><g fill="#000000" fill-opacity="1"><g transform="translate(83.76454, 21.411292)"><g><path d="M 0.75 -5.1875 C 0.75 -6.175781 0.992188 -7.097656 1.484375 -7.953125 C 1.972656 -8.816406 2.640625 -9.488281 3.484375 -9.96875 C 4.328125 -10.457031 5.242188 -10.703125 6.234375 -10.703125 C 7.222656 -10.703125 8.132812 -10.457031 8.96875 -9.96875 C 9.800781 -9.488281 10.460938 -8.820312 10.953125 -7.96875 C 11.453125 -7.125 11.703125 -6.195312 11.703125 -5.1875 C 11.703125 -4.195312 11.457031 -3.273438 10.96875 -2.421875 C 10.488281 -1.578125 9.828125 -0.914062 8.984375 -0.4375 C 8.140625 0.0390625 7.222656 0.28125 6.234375 0.28125 C 5.242188 0.28125 4.320312 0.0390625 3.46875 -0.4375 C 2.613281 -0.925781 1.945312 -1.59375 1.46875 -2.4375 C 0.988281 -3.289062 0.75 -4.207031 0.75 -5.1875 Z M 6.203125 -9.0625 C 5.160156 -9.0625 4.285156 -8.6875 3.578125 -7.9375 C 2.878906 -7.195312 2.53125 -6.285156 2.53125 -5.203125 C 2.53125 -4.410156 2.722656 -3.707031 3.109375 -3.09375 C 3.492188 -2.476562 3.960938 -2.035156 4.515625 -1.765625 C 5.066406 -1.492188 5.640625 -1.359375 6.234375 -1.359375 C 6.910156 -1.359375 7.53125 -1.515625 8.09375 -1.828125 C 8.65625 -2.148438 9.101562 -2.609375 9.4375 -3.203125 C 9.769531 -3.804688 9.9375 -4.472656 9.9375 -5.203125 C 9.9375 -5.890625 9.785156 -6.523438 9.484375 -7.109375 C 9.179688 -7.703125 8.738281 -8.175781 8.15625 -8.53125 C 7.582031 -8.882812 6.929688 -9.0625 6.203125 -9.0625 Z M 6.203125 -9.0625 "/></g></g></g><g fill="#000000" fill-opacity="1"><g transform="translate(96.779108, 21.411292)"><g><path d="M 3.546875 -16.71875 L 3.546875 -9.5625 L 10.671875 -16.71875 L 13.171875 -16.71875 L 5.328125 -8.9375 L 13.4375 0 L 10.859375 0 L 4.015625 -7.671875 L 3.546875 -7.203125 L 3.546875 0 L 1.6875 0 L 1.6875 -16.71875 Z M 3.546875 -16.71875 "/></g></g></g><g fill="#000000" fill-opacity="1"><g transform="translate(110.88006, 21.411292)"><g/></g></g><g fill="#000000" fill-opacity="1"><g transform="translate(118.263161, 21.411292)"><g><path d="M 3.546875 -16.71875 L 3.546875 -1.734375 L 8.15625 -1.734375 L 8.15625 0 L 1.6875 0 L 1.6875 -16.71875 Z M 3.546875 -16.71875 "/></g></g></g><g fill="#000000" fill-opacity="1"><g transform="translate(127.134553, 21.411292)"><g/></g></g><g fill="#000000" fill-opacity="1"><g transform="translate(134.517653, 21.411292)"><g/></g></g><g fill="#000000" fill-opacity="1"><g transform="translate(141.900754, 21.411292)"><g/></g></g><g fill="#000000" fill-opacity="1"><g transform="translate(149.283854, 21.411292)"><g/></g></g><g fill="#000000" fill-opacity="1"><g transform="translate(156.666955, 21.411292)"><g/></g></g><g fill="#000000" fill-opacity="1"><g transform="translate(164.059956, 21.411292)"><g><path d="M 4.609375 -16.71875 C 6.078125 -16.71875 7.1875 -16.539062 7.9375 -16.1875 C 8.6875 -15.84375 9.296875 -15.300781 9.765625 -14.5625 C 10.234375 -13.820312 10.46875 -12.988281 10.46875 -12.0625 C 10.46875 -10.695312 10.019531 -9.5625 9.125 -8.65625 C 8.226562 -7.757812 6.882812 -7.3125 5.09375 -7.3125 L 3.546875 -7.3125 L 3.546875 0 L 1.6875 0 L 1.6875 -16.71875 Z M 3.546875 -9.046875 L 4.546875 -9.046875 C 6.003906 -9.046875 7.046875 -9.296875 7.671875 -9.796875 C 8.296875 -10.296875 8.609375 -11.050781 8.609375 -12.0625 C 8.609375 -13.082031 8.300781 -13.820312 7.6875 -14.28125 C 7.070312 -14.75 5.988281 -14.984375 4.4375 -14.984375 L 3.546875 -14.984375 Z M 3.546875 -9.046875 "/></g></g></g><g mask="url(#809f8fbe68)"><g transform="matrix(1, 0, 0, 1, 128, 5)"><g clip-path="url(#e8738feaba)"><g clip-path="url(#6e5335723f)"><path fill="#ff3131" d="M 8.554688 0.691406 C 4.007812 0.691406 0.300781 4.398438 0.300781 8.945312 C 0.300781 13.492188 4.007812 17.203125 8.554688 17.203125 C 8.628906 17.203125 8.691406 17.203125 8.765625 17.1875 C 8.765625 17.1875 8.773438 17.1875 8.773438 17.179688 C 11.722656 17.082031 14.011719 15.007812 15.554688 13.019531 C 15.0625 12.269531 14.683594 11.589844 14.410156 11.074219 C 13.136719 12.9375 11.09375 15.136719 8.554688 15.136719 C 5.121094 15.136719 2.363281 12.382812 2.363281 8.945312 C 2.363281 5.511719 5.121094 2.753906 8.554688 2.753906 C 10.707031 2.753906 12.523438 4.285156 13.835938 5.964844 C 15.152344 7.648438 15.859375 9.339844 15.859375 9.339844 C 15.910156 9.453125 15.972656 9.550781 16.054688 9.640625 C 16.167969 9.90625 16.8125 11.414062 18.207031 13.1875 C 19.722656 15.113281 22.011719 17.203125 25.042969 17.203125 C 29.589844 17.203125 33.316406 13.519531 33.324219 8.960938 C 33.332031 4.414062 29.640625 0.691406 25.089844 0.691406 C 25.011719 0.691406 24.9375 0.699219 24.875 0.707031 C 21.9375 0.8125 19.648438 2.867188 18.101562 4.851562 C 18.59375 5.609375 18.964844 6.285156 19.230469 6.808594 C 20.511719 4.957031 22.558594 2.753906 25.089844 2.753906 C 28.519531 2.753906 31.265625 5.527344 31.257812 8.960938 C 31.25 12.398438 28.484375 15.136719 25.042969 15.136719 C 22.988281 15.136719 21.15625 13.605469 19.828125 11.914062 C 18.503906 10.21875 17.761719 8.519531 17.761719 8.519531 C 17.714844 8.414062 17.648438 8.316406 17.570312 8.238281 C 17.457031 7.960938 16.84375 6.472656 15.464844 4.707031 C 13.957031 2.769531 11.652344 0.691406 8.554688 0.691406 Z M 8.554688 0.691406 " fill-opacity="1" fill-rule="nonzero"/></g></g></g></g></svg>